<mxfile host="Electron" modified="2024-01-08T04:55:17.898Z" agent="Mozilla/5.0 (X11; Linux x86_64) AppleWebKit/537.36 (KHTML, like Gecko) draw.io/22.1.16 Chrome/120.0.6099.109 Electron/28.1.0 Safari/537.36" etag="30GMUOE6FzPr2ycxarjq" version="22.1.16" type="device">
  <diagram name="Page-1" id="lv2RBA-2qfxnkMvO_x3A">
    <mxGraphModel dx="584" dy="907" grid="1" gridSize="10" guides="1" tooltips="1" connect="1" arrows="1" fold="1" page="1" pageScale="1" pageWidth="850" pageHeight="1100" math="0" shadow="0">
      <root>
        <mxCell id="0" />
        <mxCell id="1" parent="0" />
        <mxCell id="4REqOIB7tcGAyymllORO-20" value="" style="edgeStyle=orthogonalEdgeStyle;shape=connector;curved=0;rounded=0;orthogonalLoop=1;jettySize=auto;html=1;exitX=1;exitY=0.5;exitDx=0;exitDy=0;labelBackgroundColor=default;strokeColor=#666666;strokeWidth=3;align=center;verticalAlign=middle;fontFamily=Helvetica;fontSize=11;fontColor=default;endArrow=openThin;endFill=0;" edge="1" parent="1" target="4REqOIB7tcGAyymllORO-22">
          <mxGeometry relative="1" as="geometry">
            <mxPoint x="1511.69" y="566" as="targetPoint" />
            <mxPoint x="1236" y="566" as="sourcePoint" />
            <Array as="points">
              <mxPoint x="1252" y="566" />
              <mxPoint x="1252" y="566" />
            </Array>
          </mxGeometry>
        </mxCell>
        <mxCell id="4REqOIB7tcGAyymllORO-23" value="" style="edgeStyle=orthogonalEdgeStyle;shape=connector;curved=0;rounded=0;orthogonalLoop=1;jettySize=auto;html=1;exitX=1;exitY=0.5;exitDx=0;exitDy=0;labelBackgroundColor=default;strokeColor=#666666;strokeWidth=3;align=center;verticalAlign=middle;fontFamily=Helvetica;fontSize=11;fontColor=default;endArrow=openThin;endFill=0;" edge="1" parent="1" target="4REqOIB7tcGAyymllORO-24">
          <mxGeometry relative="1" as="geometry">
            <mxPoint x="1511.69" y="566" as="targetPoint" />
            <mxPoint x="1307.0000000000007" y="566" as="sourcePoint" />
            <Array as="points">
              <mxPoint x="1322" y="566" />
              <mxPoint x="1322" y="566" />
            </Array>
          </mxGeometry>
        </mxCell>
        <mxCell id="4REqOIB7tcGAyymllORO-25" value="" style="edgeStyle=orthogonalEdgeStyle;shape=connector;curved=0;rounded=0;orthogonalLoop=1;jettySize=auto;html=1;exitX=1;exitY=0.5;exitDx=0;exitDy=0;labelBackgroundColor=default;strokeColor=#666666;strokeWidth=3;align=center;verticalAlign=middle;fontFamily=Helvetica;fontSize=11;fontColor=default;endArrow=openThin;endFill=0;" edge="1" parent="1" target="4REqOIB7tcGAyymllORO-26">
          <mxGeometry relative="1" as="geometry">
            <mxPoint x="1511.69" y="566" as="targetPoint" />
            <mxPoint x="1416" y="566" as="sourcePoint" />
            <Array as="points">
              <mxPoint x="1432" y="566" />
              <mxPoint x="1432" y="566" />
            </Array>
          </mxGeometry>
        </mxCell>
        <mxCell id="4REqOIB7tcGAyymllORO-67" value="" style="group" vertex="1" connectable="0" parent="1">
          <mxGeometry x="1001.69" y="517" width="510.30999999999995" height="147" as="geometry" />
        </mxCell>
        <mxCell id="4REqOIB7tcGAyymllORO-14" style="edgeStyle=orthogonalEdgeStyle;shape=connector;curved=0;rounded=0;orthogonalLoop=1;jettySize=auto;html=1;exitX=0;exitY=0.5;exitDx=0;exitDy=0;labelBackgroundColor=default;strokeColor=#666666;strokeWidth=3;align=center;verticalAlign=middle;fontFamily=Helvetica;fontSize=11;fontColor=default;endArrow=none;endFill=0;startArrow=openThin;startFill=0;" edge="1" parent="4REqOIB7tcGAyymllORO-67" source="4REqOIB7tcGAyymllORO-15">
          <mxGeometry relative="1" as="geometry">
            <mxPoint y="38" as="targetPoint" />
          </mxGeometry>
        </mxCell>
        <mxCell id="4REqOIB7tcGAyymllORO-15" value="&lt;b style=&quot;border-color: var(--border-color);&quot;&gt;&lt;font style=&quot;border-color: var(--border-color);&quot; color=&quot;#666666&quot;&gt;locations:&lt;/font&gt;&lt;/b&gt;" style="rounded=1;whiteSpace=wrap;html=1;strokeColor=#666666;fontFamily=Helvetica;fontSize=12;fontColor=#143642;fillColor=#ffffff;arcSize=50;fontStyle=0;shadow=0;labelBackgroundColor=none;align=center;verticalAlign=middle;strokeWidth=3;" vertex="1" parent="4REqOIB7tcGAyymllORO-67">
          <mxGeometry x="80.93999999999983" y="23" width="78.76" height="30" as="geometry" />
        </mxCell>
        <mxCell id="4REqOIB7tcGAyymllORO-19" value="&lt;font size=&quot;1&quot; color=&quot;#666666&quot;&gt;&lt;b style=&quot;font-size: 12px;&quot;&gt;Locations&lt;/b&gt;&lt;/font&gt;" style="text;html=1;strokeColor=none;fillColor=none;align=left;verticalAlign=middle;whiteSpace=wrap;rounded=0;fontSize=11;fontFamily=Helvetica;fontColor=#333333;" vertex="1" parent="4REqOIB7tcGAyymllORO-67">
          <mxGeometry x="0.6999999999999318" y="13" width="60" height="30" as="geometry" />
        </mxCell>
        <mxCell id="4REqOIB7tcGAyymllORO-40" value="" style="group" vertex="1" connectable="0" parent="4REqOIB7tcGAyymllORO-67">
          <mxGeometry x="68.30999999999995" y="97" width="371" height="50" as="geometry" />
        </mxCell>
        <mxCell id="4REqOIB7tcGAyymllORO-41" value="&lt;b style=&quot;border-color: var(--border-color); color: rgb(51, 51, 51); font-family: Helvetica; text-align: center;&quot;&gt;&lt;font style=&quot;border-color: var(--border-color);&quot; color=&quot;#666666&quot;&gt;&amp;nbsp; &amp;nbsp;Legend&lt;/font&gt;&lt;/b&gt;" style="text;html=1;align=left;verticalAlign=middle;whiteSpace=wrap;rounded=1;fontFamily=Courier New;perimeterSpacing=6;shadow=0;fillColor=#ffffff;fontColor=#143642;strokeColor=#666666;labelBackgroundColor=none;container=0;strokeWidth=3;" vertex="1" parent="4REqOIB7tcGAyymllORO-40">
          <mxGeometry width="371" height="50" as="geometry" />
        </mxCell>
        <mxCell id="4REqOIB7tcGAyymllORO-42" value="&lt;b style=&quot;border-color: var(--border-color); color: rgb(51, 51, 51);&quot;&gt;&lt;font style=&quot;border-color: var(--border-color);&quot; color=&quot;#666666&quot;&gt;expr&lt;/font&gt;&lt;/b&gt;" style="ellipse;whiteSpace=wrap;html=1;rounded=1;labelBackgroundColor=none;strokeColor=#666666;fontFamily=Helvetica;fontSize=12;fontColor=default;fillColor=default;container=0;strokeWidth=3;" vertex="1" parent="4REqOIB7tcGAyymllORO-40">
          <mxGeometry x="182" y="10" width="70" height="30" as="geometry" />
        </mxCell>
        <mxCell id="4REqOIB7tcGAyymllORO-43" value="&lt;p&gt;&lt;b style=&quot;border-color: var(--border-color); color: rgb(51, 51, 51);&quot;&gt;&lt;font style=&quot;border-color: var(--border-color);&quot; color=&quot;#666666&quot;&gt;Keyword&lt;/font&gt;&lt;/b&gt;&lt;br&gt;&lt;/p&gt;" style="rounded=1;whiteSpace=wrap;html=1;arcSize=50;fontStyle=0;fillColor=#ffffff;strokeColor=#666666;labelBackgroundColor=none;fontColor=#143642;container=0;strokeWidth=3;" vertex="1" parent="4REqOIB7tcGAyymllORO-40">
          <mxGeometry x="67.99611111111108" y="10" width="107.5" height="30" as="geometry" />
        </mxCell>
        <mxCell id="4REqOIB7tcGAyymllORO-44" value="&lt;b style=&quot;border-color: var(--border-color); color: rgb(51, 51, 51);&quot;&gt;&lt;font style=&quot;border-color: var(--border-color);&quot; color=&quot;#666666&quot;&gt;Go To&lt;/font&gt;&lt;/b&gt;" style="rounded=1;whiteSpace=wrap;html=1;strokeColor=#666666;fontFamily=Helvetica;fontSize=12;fontColor=#143642;fillColor=#FFFFFF;arcSize=0;fontStyle=0;shadow=0;labelBackgroundColor=none;container=0;strokeWidth=3;" vertex="1" parent="4REqOIB7tcGAyymllORO-40">
          <mxGeometry x="261.0049999999999" y="10" width="95" height="30" as="geometry" />
        </mxCell>
        <mxCell id="4REqOIB7tcGAyymllORO-65" style="edgeStyle=orthogonalEdgeStyle;shape=connector;curved=0;rounded=1;orthogonalLoop=1;jettySize=auto;html=1;exitX=1;exitY=0.5;exitDx=0;exitDy=0;labelBackgroundColor=default;strokeColor=#666666;strokeWidth=3;align=center;verticalAlign=middle;fontFamily=Helvetica;fontSize=11;fontColor=default;startArrow=none;startFill=0;endArrow=none;endFill=0;" edge="1" parent="4REqOIB7tcGAyymllORO-67" source="4REqOIB7tcGAyymllORO-50">
          <mxGeometry relative="1" as="geometry">
            <mxPoint x="498.30999999999995" y="40" as="targetPoint" />
            <Array as="points">
              <mxPoint x="478.30999999999995" y="15" />
              <mxPoint x="478.30999999999995" y="40" />
            </Array>
          </mxGeometry>
        </mxCell>
        <mxCell id="4REqOIB7tcGAyymllORO-50" value="&lt;b style=&quot;border-color: var(--border-color); color: rgb(51, 51, 51);&quot;&gt;&lt;font style=&quot;border-color: var(--border-color);&quot; color=&quot;#666666&quot;&gt;Locations&lt;/font&gt;&lt;/b&gt;" style="rounded=1;whiteSpace=wrap;html=1;strokeColor=#666666;fontFamily=Helvetica;fontSize=12;fontColor=#143642;fillColor=#FFFFFF;arcSize=0;fontStyle=0;shadow=0;labelBackgroundColor=none;container=0;strokeWidth=3;" vertex="1" parent="4REqOIB7tcGAyymllORO-67">
          <mxGeometry x="356.9899999999996" width="80.34" height="30" as="geometry" />
        </mxCell>
        <mxCell id="4REqOIB7tcGAyymllORO-55" style="edgeStyle=orthogonalEdgeStyle;shape=connector;curved=0;rounded=1;orthogonalLoop=1;jettySize=auto;html=1;exitX=1;exitY=0.5;exitDx=0;exitDy=0;entryX=0;entryY=0.5;entryDx=0;entryDy=0;labelBackgroundColor=default;strokeColor=#666666;strokeWidth=3;align=center;verticalAlign=middle;fontFamily=Helvetica;fontSize=11;fontColor=default;startArrow=none;startFill=0;endArrow=openThin;endFill=0;" edge="1" parent="4REqOIB7tcGAyymllORO-67" source="4REqOIB7tcGAyymllORO-51" target="4REqOIB7tcGAyymllORO-50">
          <mxGeometry relative="1" as="geometry">
            <Array as="points">
              <mxPoint x="308.30999999999995" y="38" />
              <mxPoint x="308.30999999999995" y="15" />
            </Array>
          </mxGeometry>
        </mxCell>
        <mxCell id="4REqOIB7tcGAyymllORO-51" value="&lt;p&gt;&lt;font color=&quot;#666666&quot;&gt;&lt;b&gt;location-name:&lt;/b&gt;&lt;/font&gt;&lt;/p&gt;" style="rounded=1;whiteSpace=wrap;html=1;arcSize=50;fontStyle=0;fillColor=#ffffff;strokeColor=#666666;labelBackgroundColor=none;fontColor=#143642;container=0;strokeWidth=3;" vertex="1" parent="4REqOIB7tcGAyymllORO-67">
          <mxGeometry x="183.99611111111108" y="23" width="107.5" height="30" as="geometry" />
        </mxCell>
        <mxCell id="4REqOIB7tcGAyymllORO-53" value="" style="edgeStyle=orthogonalEdgeStyle;shape=connector;curved=0;rounded=0;orthogonalLoop=1;jettySize=auto;html=1;labelBackgroundColor=default;strokeColor=#666666;strokeWidth=3;align=center;verticalAlign=middle;fontFamily=Helvetica;fontSize=11;fontColor=default;startArrow=none;startFill=0;endArrow=openThin;endFill=0;" edge="1" parent="4REqOIB7tcGAyymllORO-67" source="4REqOIB7tcGAyymllORO-15" target="4REqOIB7tcGAyymllORO-51">
          <mxGeometry relative="1" as="geometry">
            <Array as="points">
              <mxPoint x="168.30999999999995" y="38" />
              <mxPoint x="168.30999999999995" y="38" />
            </Array>
          </mxGeometry>
        </mxCell>
        <mxCell id="4REqOIB7tcGAyymllORO-64" style="edgeStyle=orthogonalEdgeStyle;shape=connector;curved=0;rounded=1;orthogonalLoop=1;jettySize=auto;html=1;exitX=1;exitY=0.5;exitDx=0;exitDy=0;labelBackgroundColor=default;strokeColor=#666666;strokeWidth=3;align=center;verticalAlign=middle;fontFamily=Helvetica;fontSize=11;fontColor=default;startArrow=none;startFill=0;endArrow=openThin;endFill=0;entryX=-0.004;entryY=0.719;entryDx=0;entryDy=0;entryPerimeter=0;" edge="1" parent="4REqOIB7tcGAyymllORO-67" source="4REqOIB7tcGAyymllORO-54">
          <mxGeometry relative="1" as="geometry">
            <mxPoint x="509.8299999999999" y="39.83000000000004" as="targetPoint" />
            <Array as="points">
              <mxPoint x="478.30999999999995" y="64" />
              <mxPoint x="478.30999999999995" y="40" />
              <mxPoint x="510.30999999999995" y="40" />
            </Array>
          </mxGeometry>
        </mxCell>
        <mxCell id="4REqOIB7tcGAyymllORO-54" value="&lt;b style=&quot;border-color: var(--border-color); color: rgb(51, 51, 51);&quot;&gt;&lt;font style=&quot;border-color: var(--border-color);&quot; color=&quot;#666666&quot;&gt;Data Requirements&lt;/font&gt;&lt;/b&gt;" style="rounded=1;whiteSpace=wrap;html=1;strokeColor=#666666;fontFamily=Helvetica;fontSize=12;fontColor=#143642;fillColor=#FFFFFF;arcSize=0;fontStyle=0;shadow=0;labelBackgroundColor=none;container=0;strokeWidth=3;" vertex="1" parent="4REqOIB7tcGAyymllORO-67">
          <mxGeometry x="330.3199999999996" y="49" width="133.68" height="30" as="geometry" />
        </mxCell>
        <mxCell id="4REqOIB7tcGAyymllORO-56" style="edgeStyle=orthogonalEdgeStyle;shape=connector;curved=0;rounded=1;orthogonalLoop=1;jettySize=auto;html=1;exitX=1;exitY=0.5;exitDx=0;exitDy=0;entryX=0;entryY=0.5;entryDx=0;entryDy=0;labelBackgroundColor=default;strokeColor=#666666;strokeWidth=3;align=center;verticalAlign=middle;fontFamily=Helvetica;fontSize=11;fontColor=default;startArrow=none;startFill=0;endArrow=openThin;endFill=0;" edge="1" parent="4REqOIB7tcGAyymllORO-67" source="4REqOIB7tcGAyymllORO-51" target="4REqOIB7tcGAyymllORO-54">
          <mxGeometry relative="1" as="geometry">
            <Array as="points">
              <mxPoint x="308.30999999999995" y="38" />
              <mxPoint x="308.30999999999995" y="64" />
            </Array>
          </mxGeometry>
        </mxCell>
        <mxCell id="4REqOIB7tcGAyymllORO-193" value="" style="group" vertex="1" connectable="0" parent="1">
          <mxGeometry x="1001.845" y="200" width="510" height="99" as="geometry" />
        </mxCell>
        <mxCell id="4REqOIB7tcGAyymllORO-33" value="" style="group" vertex="1" connectable="0" parent="4REqOIB7tcGAyymllORO-193">
          <mxGeometry x="69.5" y="49" width="371" height="50" as="geometry" />
        </mxCell>
        <mxCell id="4REqOIB7tcGAyymllORO-7" value="&lt;b style=&quot;border-color: var(--border-color); color: rgb(51, 51, 51); font-family: Helvetica; text-align: center;&quot;&gt;&lt;font style=&quot;border-color: var(--border-color);&quot; color=&quot;#666666&quot;&gt;&amp;nbsp; &amp;nbsp;Legend&lt;/font&gt;&lt;/b&gt;" style="text;html=1;align=left;verticalAlign=middle;whiteSpace=wrap;rounded=1;fontFamily=Courier New;perimeterSpacing=6;shadow=0;fillColor=#ffffff;fontColor=#143642;strokeColor=#666666;labelBackgroundColor=none;container=0;strokeWidth=3;" vertex="1" parent="4REqOIB7tcGAyymllORO-33">
          <mxGeometry width="371" height="50" as="geometry" />
        </mxCell>
        <mxCell id="4REqOIB7tcGAyymllORO-8" value="&lt;b style=&quot;border-color: var(--border-color); color: rgb(51, 51, 51);&quot;&gt;&lt;font style=&quot;border-color: var(--border-color);&quot; color=&quot;#666666&quot;&gt;expr&lt;/font&gt;&lt;/b&gt;" style="ellipse;whiteSpace=wrap;html=1;rounded=1;labelBackgroundColor=none;strokeColor=#666666;fontFamily=Helvetica;fontSize=12;fontColor=default;fillColor=default;container=0;strokeWidth=3;" vertex="1" parent="4REqOIB7tcGAyymllORO-33">
          <mxGeometry x="182" y="10" width="70" height="30" as="geometry" />
        </mxCell>
        <mxCell id="4REqOIB7tcGAyymllORO-10" value="&lt;p&gt;&lt;b style=&quot;border-color: var(--border-color); color: rgb(51, 51, 51);&quot;&gt;&lt;font style=&quot;border-color: var(--border-color);&quot; color=&quot;#666666&quot;&gt;Keyword&lt;/font&gt;&lt;/b&gt;&lt;br&gt;&lt;/p&gt;" style="rounded=1;whiteSpace=wrap;html=1;arcSize=50;fontStyle=0;fillColor=#ffffff;strokeColor=#666666;labelBackgroundColor=none;fontColor=#143642;container=0;strokeWidth=3;" vertex="1" parent="4REqOIB7tcGAyymllORO-33">
          <mxGeometry x="67.99611111111108" y="10" width="107.5" height="30" as="geometry" />
        </mxCell>
        <mxCell id="4REqOIB7tcGAyymllORO-11" value="&lt;b style=&quot;border-color: var(--border-color); color: rgb(51, 51, 51);&quot;&gt;&lt;font style=&quot;border-color: var(--border-color);&quot; color=&quot;#666666&quot;&gt;Go To&lt;/font&gt;&lt;/b&gt;" style="rounded=1;whiteSpace=wrap;html=1;strokeColor=#666666;fontFamily=Helvetica;fontSize=12;fontColor=#143642;fillColor=#FFFFFF;arcSize=0;fontStyle=0;shadow=0;labelBackgroundColor=none;container=0;strokeWidth=3;" vertex="1" parent="4REqOIB7tcGAyymllORO-33">
          <mxGeometry x="261.0049999999999" y="10" width="95" height="30" as="geometry" />
        </mxCell>
        <mxCell id="4REqOIB7tcGAyymllORO-34" value="" style="group" vertex="1" connectable="0" parent="4REqOIB7tcGAyymllORO-193">
          <mxGeometry width="510" height="30" as="geometry" />
        </mxCell>
        <mxCell id="4REqOIB7tcGAyymllORO-2" style="edgeStyle=orthogonalEdgeStyle;shape=connector;curved=0;rounded=0;orthogonalLoop=1;jettySize=auto;html=1;exitX=0;exitY=0.5;exitDx=0;exitDy=0;labelBackgroundColor=default;strokeColor=#666666;strokeWidth=3;align=center;verticalAlign=middle;fontFamily=Helvetica;fontSize=11;fontColor=default;endArrow=none;endFill=0;startArrow=openThin;startFill=0;" edge="1" parent="4REqOIB7tcGAyymllORO-34" source="4REqOIB7tcGAyymllORO-3">
          <mxGeometry relative="1" as="geometry">
            <mxPoint y="15" as="targetPoint" />
          </mxGeometry>
        </mxCell>
        <mxCell id="4REqOIB7tcGAyymllORO-3" value="&lt;b style=&quot;border-color: var(--border-color);&quot;&gt;&lt;font style=&quot;border-color: var(--border-color);&quot; color=&quot;#666666&quot;&gt;Application&lt;/font&gt;&lt;/b&gt;" style="rounded=1;whiteSpace=wrap;html=1;strokeColor=#666666;fontFamily=Helvetica;fontSize=12;fontColor=#333333;fillColor=#ffffff;arcSize=0;fontStyle=0;shadow=0;labelBackgroundColor=none;align=center;verticalAlign=top;strokeWidth=3;" vertex="1" parent="4REqOIB7tcGAyymllORO-34">
          <mxGeometry x="123" width="95" height="30" as="geometry" />
        </mxCell>
        <mxCell id="4REqOIB7tcGAyymllORO-4" style="edgeStyle=orthogonalEdgeStyle;shape=connector;curved=0;rounded=0;orthogonalLoop=1;jettySize=auto;html=1;exitX=1;exitY=0.5;exitDx=0;exitDy=0;labelBackgroundColor=default;strokeColor=#666666;strokeWidth=3;align=center;verticalAlign=middle;fontFamily=Helvetica;fontSize=11;fontColor=default;endArrow=openThin;endFill=0;" edge="1" parent="4REqOIB7tcGAyymllORO-34" source="4REqOIB7tcGAyymllORO-5">
          <mxGeometry relative="1" as="geometry">
            <mxPoint x="510" y="15" as="targetPoint" />
          </mxGeometry>
        </mxCell>
        <mxCell id="4REqOIB7tcGAyymllORO-5" value="&lt;b style=&quot;border-color: var(--border-color); color: rgb(51, 51, 51);&quot;&gt;&lt;font style=&quot;border-color: var(--border-color);&quot; color=&quot;#666666&quot;&gt;Locations&lt;/font&gt;&lt;/b&gt;" style="rounded=1;whiteSpace=wrap;html=1;strokeColor=#666666;fontFamily=Helvetica;fontSize=12;fontColor=#333333;fillColor=#ffffff;arcSize=0;fontStyle=0;shadow=0;labelBackgroundColor=none;verticalAlign=top;strokeWidth=3;" vertex="1" parent="4REqOIB7tcGAyymllORO-34">
          <mxGeometry x="293" width="95" height="30" as="geometry" />
        </mxCell>
        <mxCell id="4REqOIB7tcGAyymllORO-6" style="edgeStyle=orthogonalEdgeStyle;shape=connector;curved=0;rounded=0;orthogonalLoop=1;jettySize=auto;html=1;exitX=1;exitY=0.5;exitDx=0;exitDy=0;labelBackgroundColor=default;strokeColor=#666666;strokeWidth=3;align=center;verticalAlign=middle;fontFamily=Helvetica;fontSize=11;fontColor=default;endArrow=openThin;endFill=0;" edge="1" parent="4REqOIB7tcGAyymllORO-34" source="4REqOIB7tcGAyymllORO-3" target="4REqOIB7tcGAyymllORO-5">
          <mxGeometry relative="1" as="geometry" />
        </mxCell>
        <mxCell id="4REqOIB7tcGAyymllORO-194" value="" style="group" vertex="1" connectable="0" parent="1">
          <mxGeometry x="1001.69" y="349" width="510.30999999999995" height="117" as="geometry" />
        </mxCell>
        <mxCell id="MEt0MIwIxQcFvyBTdbw6-34" style="edgeStyle=orthogonalEdgeStyle;shape=connector;curved=0;rounded=0;orthogonalLoop=1;jettySize=auto;html=1;exitX=0;exitY=0.5;exitDx=0;exitDy=0;labelBackgroundColor=default;strokeColor=#666666;strokeWidth=3;align=center;verticalAlign=middle;fontFamily=Helvetica;fontSize=11;fontColor=default;endArrow=none;endFill=0;startArrow=openThin;startFill=0;" parent="4REqOIB7tcGAyymllORO-194" source="MEt0MIwIxQcFvyBTdbw6-35" edge="1">
          <mxGeometry relative="1" as="geometry">
            <mxPoint y="25" as="targetPoint" />
          </mxGeometry>
        </mxCell>
        <mxCell id="MEt0MIwIxQcFvyBTdbw6-35" value="&lt;b style=&quot;border-color: var(--border-color);&quot;&gt;&lt;font style=&quot;border-color: var(--border-color);&quot; color=&quot;#666666&quot;&gt;application:&lt;/font&gt;&lt;/b&gt;" style="rounded=1;whiteSpace=wrap;html=1;strokeColor=#666666;fontFamily=Helvetica;fontSize=12;fontColor=#143642;fillColor=#ffffff;arcSize=50;fontStyle=0;shadow=0;labelBackgroundColor=none;align=center;verticalAlign=middle;strokeWidth=3;" parent="4REqOIB7tcGAyymllORO-194" vertex="1">
          <mxGeometry x="80.93999999999983" y="10" width="78.76" height="30" as="geometry" />
        </mxCell>
        <mxCell id="MEt0MIwIxQcFvyBTdbw6-36" style="edgeStyle=orthogonalEdgeStyle;shape=connector;curved=0;rounded=0;orthogonalLoop=1;jettySize=auto;html=1;exitX=1;exitY=0.5;exitDx=0;exitDy=0;labelBackgroundColor=default;strokeColor=#666666;strokeWidth=3;align=center;verticalAlign=middle;fontFamily=Helvetica;fontSize=11;fontColor=default;endArrow=openThin;endFill=0;" parent="4REqOIB7tcGAyymllORO-194" source="MEt0MIwIxQcFvyBTdbw6-46" edge="1">
          <mxGeometry relative="1" as="geometry">
            <mxPoint x="510.30999999999995" y="25" as="targetPoint" />
            <mxPoint x="496.31000000000085" y="25" as="sourcePoint" />
            <Array as="points" />
          </mxGeometry>
        </mxCell>
        <mxCell id="MEt0MIwIxQcFvyBTdbw6-37" value="&lt;b style=&quot;border-color: var(--border-color); color: rgb(51, 51, 51);&quot;&gt;&lt;font style=&quot;border-color: var(--border-color);&quot; color=&quot;#666666&quot;&gt;name:&lt;/font&gt;&lt;/b&gt;" style="rounded=1;whiteSpace=wrap;html=1;strokeColor=#666666;fontFamily=Helvetica;fontSize=12;fontColor=#143642;fillColor=#ffffff;arcSize=50;fontStyle=0;shadow=0;labelBackgroundColor=none;verticalAlign=middle;strokeWidth=3;" parent="4REqOIB7tcGAyymllORO-194" vertex="1">
          <mxGeometry x="179" y="10" width="55.31" height="30" as="geometry" />
        </mxCell>
        <mxCell id="MEt0MIwIxQcFvyBTdbw6-38" style="edgeStyle=orthogonalEdgeStyle;shape=connector;curved=0;rounded=0;orthogonalLoop=1;jettySize=auto;html=1;exitX=1;exitY=0.5;exitDx=0;exitDy=0;labelBackgroundColor=default;strokeColor=#666666;strokeWidth=3;align=center;verticalAlign=middle;fontFamily=Helvetica;fontSize=11;fontColor=default;endArrow=openThin;endFill=0;" parent="4REqOIB7tcGAyymllORO-194" source="MEt0MIwIxQcFvyBTdbw6-35" target="MEt0MIwIxQcFvyBTdbw6-37" edge="1">
          <mxGeometry relative="1" as="geometry">
            <Array as="points">
              <mxPoint x="190.30999999999995" y="25" />
              <mxPoint x="190.30999999999995" y="25" />
            </Array>
          </mxGeometry>
        </mxCell>
        <mxCell id="MEt0MIwIxQcFvyBTdbw6-39" value="&lt;font size=&quot;1&quot; color=&quot;#666666&quot;&gt;&lt;b style=&quot;font-size: 12px;&quot;&gt;Application&lt;/b&gt;&lt;/font&gt;" style="text;html=1;strokeColor=none;fillColor=none;align=center;verticalAlign=middle;whiteSpace=wrap;rounded=0;fontSize=11;fontFamily=Helvetica;fontColor=#333333;" parent="4REqOIB7tcGAyymllORO-194" vertex="1">
          <mxGeometry x="3.699999999999932" width="60" height="30" as="geometry" />
        </mxCell>
        <mxCell id="MEt0MIwIxQcFvyBTdbw6-42" value="" style="edgeStyle=orthogonalEdgeStyle;shape=connector;curved=0;rounded=0;orthogonalLoop=1;jettySize=auto;html=1;exitX=1;exitY=0.5;exitDx=0;exitDy=0;labelBackgroundColor=default;strokeColor=#666666;strokeWidth=3;align=center;verticalAlign=middle;fontFamily=Helvetica;fontSize=11;fontColor=default;endArrow=openThin;endFill=0;" parent="4REqOIB7tcGAyymllORO-194" source="MEt0MIwIxQcFvyBTdbw6-37" target="MEt0MIwIxQcFvyBTdbw6-41" edge="1">
          <mxGeometry relative="1" as="geometry">
            <mxPoint x="510" y="25" as="targetPoint" />
            <mxPoint x="250.30999999999995" y="25" as="sourcePoint" />
            <Array as="points">
              <mxPoint x="250.30999999999995" y="25" />
              <mxPoint x="250.30999999999995" y="25" />
            </Array>
          </mxGeometry>
        </mxCell>
        <mxCell id="MEt0MIwIxQcFvyBTdbw6-45" style="edgeStyle=orthogonalEdgeStyle;shape=connector;curved=0;rounded=1;orthogonalLoop=1;jettySize=auto;html=1;labelBackgroundColor=default;strokeColor=#666666;strokeWidth=3;align=center;verticalAlign=middle;fontFamily=Helvetica;fontSize=11;fontColor=default;endArrow=none;endFill=0;" parent="4REqOIB7tcGAyymllORO-194" source="MEt0MIwIxQcFvyBTdbw6-41" edge="1">
          <mxGeometry relative="1" as="geometry">
            <mxPoint x="500.30999999999995" y="25" as="targetPoint" />
            <Array as="points">
              <mxPoint x="313.30999999999995" y="25" />
              <mxPoint x="313.30999999999995" y="50" />
              <mxPoint x="490.30999999999995" y="50" />
              <mxPoint x="490.30999999999995" y="25" />
            </Array>
          </mxGeometry>
        </mxCell>
        <mxCell id="MEt0MIwIxQcFvyBTdbw6-41" value="&lt;b style=&quot;border-color: var(--border-color); color: rgb(51, 51, 51);&quot;&gt;&lt;font style=&quot;border-color: var(--border-color);&quot; color=&quot;#666666&quot;&gt;String&lt;/font&gt;&lt;/b&gt;" style="ellipse;whiteSpace=wrap;html=1;rounded=1;labelBackgroundColor=none;strokeColor=#666666;fontFamily=Helvetica;fontSize=12;fontColor=default;fillColor=default;container=0;strokeWidth=3;" parent="4REqOIB7tcGAyymllORO-194" vertex="1">
          <mxGeometry x="252.48000000000002" y="10" width="50.83" height="30" as="geometry" />
        </mxCell>
        <mxCell id="MEt0MIwIxQcFvyBTdbw6-44" value="" style="edgeStyle=orthogonalEdgeStyle;shape=connector;curved=0;rounded=0;orthogonalLoop=1;jettySize=auto;html=1;exitX=1;exitY=0.5;exitDx=0;exitDy=0;labelBackgroundColor=default;strokeColor=#666666;strokeWidth=3;align=center;verticalAlign=middle;fontFamily=Helvetica;fontSize=11;fontColor=default;endArrow=openThin;endFill=0;" parent="4REqOIB7tcGAyymllORO-194" source="MEt0MIwIxQcFvyBTdbw6-41" target="MEt0MIwIxQcFvyBTdbw6-43" edge="1">
          <mxGeometry relative="1" as="geometry">
            <mxPoint x="510" y="25" as="targetPoint" />
            <mxPoint x="320.30999999999995" y="25" as="sourcePoint" />
            <Array as="points">
              <mxPoint x="320.30999999999995" y="25" />
              <mxPoint x="320.30999999999995" y="25" />
            </Array>
          </mxGeometry>
        </mxCell>
        <mxCell id="MEt0MIwIxQcFvyBTdbw6-43" value="&lt;b style=&quot;border-color: var(--border-color); color: rgb(51, 51, 51);&quot;&gt;&lt;font style=&quot;border-color: var(--border-color);&quot; color=&quot;#666666&quot;&gt;description:&lt;/font&gt;&lt;/b&gt;" style="rounded=1;whiteSpace=wrap;html=1;strokeColor=#666666;fontFamily=Helvetica;fontSize=12;fontColor=#143642;fillColor=#ffffff;arcSize=50;fontStyle=0;shadow=0;labelBackgroundColor=none;verticalAlign=middle;strokeWidth=3;" parent="4REqOIB7tcGAyymllORO-194" vertex="1">
          <mxGeometry x="328.30999999999995" y="10" width="85" height="30" as="geometry" />
        </mxCell>
        <mxCell id="MEt0MIwIxQcFvyBTdbw6-47" value="" style="edgeStyle=orthogonalEdgeStyle;shape=connector;curved=0;rounded=0;orthogonalLoop=1;jettySize=auto;html=1;exitX=1;exitY=0.5;exitDx=0;exitDy=0;labelBackgroundColor=default;strokeColor=#666666;strokeWidth=3;align=center;verticalAlign=middle;fontFamily=Helvetica;fontSize=11;fontColor=default;endArrow=openThin;endFill=0;" parent="4REqOIB7tcGAyymllORO-194" source="MEt0MIwIxQcFvyBTdbw6-43" target="MEt0MIwIxQcFvyBTdbw6-46" edge="1">
          <mxGeometry relative="1" as="geometry">
            <mxPoint x="510" y="25" as="targetPoint" />
            <mxPoint x="430.30999999999995" y="25" as="sourcePoint" />
            <Array as="points">
              <mxPoint x="430.30999999999995" y="25" />
              <mxPoint x="430.30999999999995" y="25" />
            </Array>
          </mxGeometry>
        </mxCell>
        <mxCell id="MEt0MIwIxQcFvyBTdbw6-46" value="&lt;b style=&quot;border-color: var(--border-color); color: rgb(51, 51, 51);&quot;&gt;&lt;font style=&quot;border-color: var(--border-color);&quot; color=&quot;#666666&quot;&gt;String&lt;/font&gt;&lt;/b&gt;" style="ellipse;whiteSpace=wrap;html=1;rounded=1;labelBackgroundColor=none;strokeColor=#666666;fontFamily=Helvetica;fontSize=12;fontColor=default;fillColor=default;container=0;strokeWidth=3;" parent="4REqOIB7tcGAyymllORO-194" vertex="1">
          <mxGeometry x="431.30999999999995" y="10" width="54" height="30" as="geometry" />
        </mxCell>
        <mxCell id="4REqOIB7tcGAyymllORO-35" value="" style="group" vertex="1" connectable="0" parent="4REqOIB7tcGAyymllORO-194">
          <mxGeometry x="68.30999999999995" y="67" width="371" height="50" as="geometry" />
        </mxCell>
        <mxCell id="4REqOIB7tcGAyymllORO-36" value="&lt;b style=&quot;border-color: var(--border-color); color: rgb(51, 51, 51); font-family: Helvetica; text-align: center;&quot;&gt;&lt;font style=&quot;border-color: var(--border-color);&quot; color=&quot;#666666&quot;&gt;&amp;nbsp; &amp;nbsp;Legend&lt;/font&gt;&lt;/b&gt;" style="text;html=1;align=left;verticalAlign=middle;whiteSpace=wrap;rounded=1;fontFamily=Courier New;perimeterSpacing=6;shadow=0;fillColor=#ffffff;fontColor=#143642;strokeColor=#666666;labelBackgroundColor=none;container=0;strokeWidth=3;" vertex="1" parent="4REqOIB7tcGAyymllORO-35">
          <mxGeometry width="371" height="50" as="geometry" />
        </mxCell>
        <mxCell id="4REqOIB7tcGAyymllORO-37" value="&lt;b style=&quot;border-color: var(--border-color); color: rgb(51, 51, 51);&quot;&gt;&lt;font style=&quot;border-color: var(--border-color);&quot; color=&quot;#666666&quot;&gt;expr&lt;/font&gt;&lt;/b&gt;" style="ellipse;whiteSpace=wrap;html=1;rounded=1;labelBackgroundColor=none;strokeColor=#666666;fontFamily=Helvetica;fontSize=12;fontColor=default;fillColor=default;container=0;strokeWidth=3;" vertex="1" parent="4REqOIB7tcGAyymllORO-35">
          <mxGeometry x="182" y="10" width="70" height="30" as="geometry" />
        </mxCell>
        <mxCell id="4REqOIB7tcGAyymllORO-38" value="&lt;p&gt;&lt;b style=&quot;border-color: var(--border-color); color: rgb(51, 51, 51);&quot;&gt;&lt;font style=&quot;border-color: var(--border-color);&quot; color=&quot;#666666&quot;&gt;Keyword&lt;/font&gt;&lt;/b&gt;&lt;br&gt;&lt;/p&gt;" style="rounded=1;whiteSpace=wrap;html=1;arcSize=50;fontStyle=0;fillColor=#ffffff;strokeColor=#666666;labelBackgroundColor=none;fontColor=#143642;container=0;strokeWidth=3;" vertex="1" parent="4REqOIB7tcGAyymllORO-35">
          <mxGeometry x="67.99611111111108" y="10" width="107.5" height="30" as="geometry" />
        </mxCell>
        <mxCell id="4REqOIB7tcGAyymllORO-39" value="&lt;b style=&quot;border-color: var(--border-color); color: rgb(51, 51, 51);&quot;&gt;&lt;font style=&quot;border-color: var(--border-color);&quot; color=&quot;#666666&quot;&gt;Go To&lt;/font&gt;&lt;/b&gt;" style="rounded=1;whiteSpace=wrap;html=1;strokeColor=#666666;fontFamily=Helvetica;fontSize=12;fontColor=#143642;fillColor=#FFFFFF;arcSize=0;fontStyle=0;shadow=0;labelBackgroundColor=none;container=0;strokeWidth=3;" vertex="1" parent="4REqOIB7tcGAyymllORO-35">
          <mxGeometry x="261.0049999999999" y="10" width="95" height="30" as="geometry" />
        </mxCell>
        <mxCell id="4REqOIB7tcGAyymllORO-195" value="" style="group" vertex="1" connectable="0" parent="1">
          <mxGeometry x="1000.5899999999999" y="714" width="512.5100000000001" height="306" as="geometry" />
        </mxCell>
        <mxCell id="4REqOIB7tcGAyymllORO-157" value="" style="group" vertex="1" connectable="0" parent="4REqOIB7tcGAyymllORO-195">
          <mxGeometry x="72.07000000000005" y="256" width="371" height="50" as="geometry" />
        </mxCell>
        <mxCell id="4REqOIB7tcGAyymllORO-158" value="&lt;b style=&quot;border-color: var(--border-color); color: rgb(51, 51, 51); font-family: Helvetica; text-align: center;&quot;&gt;&lt;font style=&quot;border-color: var(--border-color);&quot; color=&quot;#666666&quot;&gt;&amp;nbsp; &amp;nbsp;Legend&lt;/font&gt;&lt;/b&gt;" style="text;html=1;align=left;verticalAlign=middle;whiteSpace=wrap;rounded=1;fontFamily=Courier New;perimeterSpacing=6;shadow=0;fillColor=#ffffff;fontColor=#143642;strokeColor=#666666;labelBackgroundColor=none;container=0;strokeWidth=3;" vertex="1" parent="4REqOIB7tcGAyymllORO-157">
          <mxGeometry width="371" height="50" as="geometry" />
        </mxCell>
        <mxCell id="4REqOIB7tcGAyymllORO-159" value="&lt;b style=&quot;border-color: var(--border-color); color: rgb(51, 51, 51);&quot;&gt;&lt;font style=&quot;border-color: var(--border-color);&quot; color=&quot;#666666&quot;&gt;expr&lt;/font&gt;&lt;/b&gt;" style="ellipse;whiteSpace=wrap;html=1;rounded=1;labelBackgroundColor=none;strokeColor=#666666;fontFamily=Helvetica;fontSize=12;fontColor=default;fillColor=default;container=0;strokeWidth=3;" vertex="1" parent="4REqOIB7tcGAyymllORO-157">
          <mxGeometry x="182" y="10" width="70" height="30" as="geometry" />
        </mxCell>
        <mxCell id="4REqOIB7tcGAyymllORO-160" value="&lt;p&gt;&lt;b style=&quot;border-color: var(--border-color); color: rgb(51, 51, 51);&quot;&gt;&lt;font style=&quot;border-color: var(--border-color);&quot; color=&quot;#666666&quot;&gt;Keyword&lt;/font&gt;&lt;/b&gt;&lt;br&gt;&lt;/p&gt;" style="rounded=1;whiteSpace=wrap;html=1;arcSize=50;fontStyle=0;fillColor=#ffffff;strokeColor=#666666;labelBackgroundColor=none;fontColor=#143642;container=0;strokeWidth=3;" vertex="1" parent="4REqOIB7tcGAyymllORO-157">
          <mxGeometry x="67.99611111111108" y="10" width="107.5" height="30" as="geometry" />
        </mxCell>
        <mxCell id="4REqOIB7tcGAyymllORO-161" value="&lt;b style=&quot;border-color: var(--border-color); color: rgb(51, 51, 51);&quot;&gt;&lt;font style=&quot;border-color: var(--border-color);&quot; color=&quot;#666666&quot;&gt;Go To&lt;/font&gt;&lt;/b&gt;" style="rounded=1;whiteSpace=wrap;html=1;strokeColor=#666666;fontFamily=Helvetica;fontSize=12;fontColor=#143642;fillColor=#FFFFFF;arcSize=0;fontStyle=0;shadow=0;labelBackgroundColor=none;container=0;strokeWidth=3;" vertex="1" parent="4REqOIB7tcGAyymllORO-157">
          <mxGeometry x="261.0049999999999" y="10" width="95" height="30" as="geometry" />
        </mxCell>
        <mxCell id="4REqOIB7tcGAyymllORO-69" style="edgeStyle=orthogonalEdgeStyle;shape=connector;curved=0;rounded=0;orthogonalLoop=1;jettySize=auto;html=1;exitX=0;exitY=0.5;exitDx=0;exitDy=0;labelBackgroundColor=default;strokeColor=#666666;strokeWidth=3;align=center;verticalAlign=middle;fontFamily=Helvetica;fontSize=11;fontColor=default;endArrow=none;endFill=0;startArrow=openThin;startFill=0;" edge="1" parent="4REqOIB7tcGAyymllORO-195" source="4REqOIB7tcGAyymllORO-70">
          <mxGeometry relative="1" as="geometry">
            <mxPoint x="1.3000000000000682" y="34" as="targetPoint" />
          </mxGeometry>
        </mxCell>
        <mxCell id="4REqOIB7tcGAyymllORO-70" value="&lt;font color=&quot;#666666&quot;&gt;&lt;b&gt;data-requirements:&lt;/b&gt;&lt;/font&gt;" style="rounded=1;whiteSpace=wrap;html=1;strokeColor=#666666;fontFamily=Helvetica;fontSize=12;fontColor=#143642;fillColor=#ffffff;arcSize=50;fontStyle=0;shadow=0;labelBackgroundColor=none;align=center;verticalAlign=middle;strokeWidth=3;container=0;" vertex="1" parent="4REqOIB7tcGAyymllORO-195">
          <mxGeometry x="92.07000000000005" y="19" width="120" height="30" as="geometry" />
        </mxCell>
        <mxCell id="4REqOIB7tcGAyymllORO-71" value="&lt;font size=&quot;1&quot; color=&quot;#666666&quot;&gt;&lt;b style=&quot;font-size: 12px;&quot;&gt;Data&lt;br&gt;Requirements&lt;br&gt;&lt;/b&gt;&lt;/font&gt;" style="text;html=1;strokeColor=none;fillColor=none;align=left;verticalAlign=middle;whiteSpace=wrap;rounded=0;fontSize=11;fontFamily=Helvetica;fontColor=#333333;container=0;" vertex="1" parent="4REqOIB7tcGAyymllORO-195">
          <mxGeometry width="60" height="30" as="geometry" />
        </mxCell>
        <mxCell id="4REqOIB7tcGAyymllORO-104" value="&lt;font color=&quot;#666666&quot;&gt;&lt;b&gt;data-key:&lt;/b&gt;&lt;/font&gt;" style="rounded=1;whiteSpace=wrap;html=1;strokeColor=#666666;fontFamily=Helvetica;fontSize=12;fontColor=#143642;fillColor=#ffffff;arcSize=50;fontStyle=0;shadow=0;labelBackgroundColor=none;align=center;verticalAlign=middle;strokeWidth=3;container=0;" vertex="1" parent="4REqOIB7tcGAyymllORO-195">
          <mxGeometry x="262.07000000000005" y="19" width="70.41" height="30" as="geometry" />
        </mxCell>
        <mxCell id="4REqOIB7tcGAyymllORO-112" style="edgeStyle=orthogonalEdgeStyle;shape=connector;curved=0;rounded=1;orthogonalLoop=1;jettySize=auto;html=1;entryX=0;entryY=0.5;entryDx=0;entryDy=0;labelBackgroundColor=default;strokeColor=#666666;strokeWidth=3;align=center;verticalAlign=middle;fontFamily=Helvetica;fontSize=11;fontColor=default;startArrow=none;startFill=0;endArrow=openThin;endFill=0;" edge="1" parent="4REqOIB7tcGAyymllORO-195" source="4REqOIB7tcGAyymllORO-70" target="4REqOIB7tcGAyymllORO-104">
          <mxGeometry relative="1" as="geometry" />
        </mxCell>
        <mxCell id="4REqOIB7tcGAyymllORO-105" value="&lt;b style=&quot;border-color: var(--border-color); color: rgb(51, 51, 51);&quot;&gt;&lt;font style=&quot;border-color: var(--border-color);&quot; color=&quot;#666666&quot;&gt;Output&lt;/font&gt;&lt;/b&gt;" style="rounded=1;whiteSpace=wrap;html=1;strokeColor=#666666;fontFamily=Helvetica;fontSize=12;fontColor=#143642;fillColor=#FFFFFF;arcSize=0;fontStyle=0;shadow=0;labelBackgroundColor=none;container=0;strokeWidth=3;" vertex="1" parent="4REqOIB7tcGAyymllORO-195">
          <mxGeometry x="73.56999999999982" y="66" width="55" height="30" as="geometry" />
        </mxCell>
        <mxCell id="4REqOIB7tcGAyymllORO-125" style="edgeStyle=orthogonalEdgeStyle;shape=connector;curved=0;rounded=1;orthogonalLoop=1;jettySize=auto;html=1;exitX=1;exitY=0.5;exitDx=0;exitDy=0;labelBackgroundColor=default;strokeColor=#666666;strokeWidth=3;align=center;verticalAlign=middle;fontFamily=Helvetica;fontSize=11;fontColor=default;startArrow=none;startFill=0;endArrow=openThin;endFill=0;" edge="1" parent="4REqOIB7tcGAyymllORO-195" source="4REqOIB7tcGAyymllORO-106">
          <mxGeometry relative="1" as="geometry">
            <mxPoint x="512.07" y="80.9310344827586" as="targetPoint" />
            <Array as="points">
              <mxPoint x="372.07000000000005" y="81" />
              <mxPoint x="372.07000000000005" y="106" />
              <mxPoint x="482.07000000000005" y="106" />
              <mxPoint x="482.07000000000005" y="81" />
            </Array>
          </mxGeometry>
        </mxCell>
        <mxCell id="4REqOIB7tcGAyymllORO-106" value="&lt;font color=&quot;#666666&quot;&gt;&lt;b&gt;Count&lt;/b&gt;&lt;/font&gt;" style="rounded=1;whiteSpace=wrap;html=1;strokeColor=#666666;fontFamily=Helvetica;fontSize=12;fontColor=#143642;fillColor=#FFFFFF;arcSize=0;fontStyle=0;shadow=0;labelBackgroundColor=none;container=0;strokeWidth=3;" vertex="1" parent="4REqOIB7tcGAyymllORO-195">
          <mxGeometry x="276.07000000000005" y="66" width="70" height="30" as="geometry" />
        </mxCell>
        <mxCell id="4REqOIB7tcGAyymllORO-123" style="edgeStyle=orthogonalEdgeStyle;shape=connector;curved=0;rounded=1;orthogonalLoop=1;jettySize=auto;html=1;exitX=1;exitY=0.5;exitDx=0;exitDy=0;labelBackgroundColor=default;strokeColor=#666666;strokeWidth=3;align=center;verticalAlign=middle;fontFamily=Helvetica;fontSize=11;fontColor=default;startArrow=none;startFill=0;endArrow=openThin;endFill=0;" edge="1" parent="4REqOIB7tcGAyymllORO-195" source="4REqOIB7tcGAyymllORO-107">
          <mxGeometry relative="1" as="geometry">
            <mxPoint x="512.07" y="80.97101449275351" as="targetPoint" />
          </mxGeometry>
        </mxCell>
        <mxCell id="4REqOIB7tcGAyymllORO-107" value="&lt;font color=&quot;#666666&quot;&gt;&lt;b&gt;Timeout&lt;/b&gt;&lt;/font&gt;" style="rounded=1;whiteSpace=wrap;html=1;strokeColor=#666666;fontFamily=Helvetica;fontSize=12;fontColor=#143642;fillColor=#FFFFFF;arcSize=0;fontStyle=0;shadow=0;labelBackgroundColor=none;container=0;strokeWidth=3;" vertex="1" parent="4REqOIB7tcGAyymllORO-195">
          <mxGeometry x="394.0699999999998" y="66" width="70" height="30" as="geometry" />
        </mxCell>
        <mxCell id="4REqOIB7tcGAyymllORO-122" style="edgeStyle=orthogonalEdgeStyle;shape=connector;curved=0;rounded=1;orthogonalLoop=1;jettySize=auto;html=1;exitX=1;exitY=0.5;exitDx=0;exitDy=0;entryX=0;entryY=0.5;entryDx=0;entryDy=0;labelBackgroundColor=default;strokeColor=#666666;strokeWidth=3;align=center;verticalAlign=middle;fontFamily=Helvetica;fontSize=11;fontColor=default;startArrow=none;startFill=0;endArrow=openThin;endFill=0;" edge="1" parent="4REqOIB7tcGAyymllORO-195" source="4REqOIB7tcGAyymllORO-106" target="4REqOIB7tcGAyymllORO-107">
          <mxGeometry relative="1" as="geometry" />
        </mxCell>
        <mxCell id="4REqOIB7tcGAyymllORO-114" style="edgeStyle=orthogonalEdgeStyle;shape=connector;curved=0;rounded=1;orthogonalLoop=1;jettySize=auto;html=1;exitX=1;exitY=0.5;exitDx=0;exitDy=0;labelBackgroundColor=default;strokeColor=#666666;strokeWidth=3;align=center;verticalAlign=middle;fontFamily=Helvetica;fontSize=11;fontColor=default;startArrow=none;startFill=0;endArrow=openThin;endFill=0;entryX=-0.013;entryY=0.943;entryDx=0;entryDy=0;entryPerimeter=0;" edge="1" parent="4REqOIB7tcGAyymllORO-195" source="4REqOIB7tcGAyymllORO-111">
          <mxGeometry relative="1" as="geometry">
            <mxPoint x="512.5100000000001" y="34.07999999999993" as="targetPoint" />
          </mxGeometry>
        </mxCell>
        <mxCell id="4REqOIB7tcGAyymllORO-111" value="&lt;font color=&quot;#666666&quot;&gt;&lt;b&gt;Properties&lt;/b&gt;&lt;/font&gt;" style="rounded=1;whiteSpace=wrap;html=1;strokeColor=#666666;fontFamily=Helvetica;fontSize=12;fontColor=#143642;fillColor=#FFFFFF;arcSize=0;fontStyle=0;shadow=0;labelBackgroundColor=none;container=0;strokeWidth=3;" vertex="1" parent="4REqOIB7tcGAyymllORO-195">
          <mxGeometry x="392.0699999999998" y="19" width="70" height="30" as="geometry" />
        </mxCell>
        <mxCell id="4REqOIB7tcGAyymllORO-113" style="edgeStyle=orthogonalEdgeStyle;shape=connector;curved=0;rounded=1;orthogonalLoop=1;jettySize=auto;html=1;exitX=1;exitY=0.5;exitDx=0;exitDy=0;entryX=0;entryY=0.5;entryDx=0;entryDy=0;labelBackgroundColor=default;strokeColor=#666666;strokeWidth=3;align=center;verticalAlign=middle;fontFamily=Helvetica;fontSize=11;fontColor=default;startArrow=none;startFill=0;endArrow=openThin;endFill=0;" edge="1" parent="4REqOIB7tcGAyymllORO-195" source="4REqOIB7tcGAyymllORO-104" target="4REqOIB7tcGAyymllORO-111">
          <mxGeometry relative="1" as="geometry" />
        </mxCell>
        <mxCell id="4REqOIB7tcGAyymllORO-116" style="edgeStyle=orthogonalEdgeStyle;shape=connector;curved=0;rounded=0;orthogonalLoop=1;jettySize=auto;html=1;labelBackgroundColor=default;strokeColor=#666666;strokeWidth=3;align=center;verticalAlign=middle;fontFamily=Helvetica;fontSize=11;fontColor=default;endArrow=none;endFill=0;startArrow=openThin;startFill=0;" edge="1" parent="4REqOIB7tcGAyymllORO-195">
          <mxGeometry relative="1" as="geometry">
            <mxPoint x="2.07000000000005" y="81" as="targetPoint" />
            <mxPoint x="72.07000000000005" y="81" as="sourcePoint" />
          </mxGeometry>
        </mxCell>
        <mxCell id="4REqOIB7tcGAyymllORO-117" value="&lt;font size=&quot;1&quot; color=&quot;#666666&quot;&gt;&lt;b style=&quot;font-size: 12px;&quot;&gt;Properties&lt;br&gt;&lt;/b&gt;&lt;/font&gt;" style="text;html=1;strokeColor=none;fillColor=none;align=left;verticalAlign=middle;whiteSpace=wrap;rounded=0;fontSize=11;fontFamily=Helvetica;fontColor=#333333;container=0;" vertex="1" parent="4REqOIB7tcGAyymllORO-195">
          <mxGeometry y="56" width="60" height="30" as="geometry" />
        </mxCell>
        <mxCell id="4REqOIB7tcGAyymllORO-119" value="" style="edgeStyle=orthogonalEdgeStyle;shape=connector;curved=0;rounded=1;orthogonalLoop=1;jettySize=auto;html=1;labelBackgroundColor=default;strokeColor=#666666;strokeWidth=3;align=center;verticalAlign=middle;fontFamily=Helvetica;fontSize=11;fontColor=default;startArrow=none;startFill=0;endArrow=openThin;endFill=0;" edge="1" parent="4REqOIB7tcGAyymllORO-195" source="4REqOIB7tcGAyymllORO-105" target="4REqOIB7tcGAyymllORO-102">
          <mxGeometry relative="1" as="geometry">
            <mxPoint x="129.07000000000005" y="81" as="sourcePoint" />
            <mxPoint x="242.07000000000005" y="81" as="targetPoint" />
          </mxGeometry>
        </mxCell>
        <mxCell id="4REqOIB7tcGAyymllORO-124" style="edgeStyle=orthogonalEdgeStyle;shape=connector;curved=0;rounded=1;orthogonalLoop=1;jettySize=auto;html=1;exitX=1;exitY=0.5;exitDx=0;exitDy=0;entryX=0;entryY=0.5;entryDx=0;entryDy=0;labelBackgroundColor=default;strokeColor=#666666;strokeWidth=3;align=center;verticalAlign=middle;fontFamily=Helvetica;fontSize=11;fontColor=default;startArrow=none;startFill=0;endArrow=openThin;endFill=0;" edge="1" parent="4REqOIB7tcGAyymllORO-195" source="4REqOIB7tcGAyymllORO-102" target="4REqOIB7tcGAyymllORO-107">
          <mxGeometry relative="1" as="geometry">
            <Array as="points">
              <mxPoint x="252.07000000000005" y="81" />
              <mxPoint x="252.07000000000005" y="106" />
              <mxPoint x="362.07000000000005" y="106" />
              <mxPoint x="362.07000000000005" y="81" />
            </Array>
          </mxGeometry>
        </mxCell>
        <mxCell id="4REqOIB7tcGAyymllORO-102" value="&lt;font color=&quot;#666666&quot;&gt;&lt;b&gt;Required&lt;/b&gt;&lt;/font&gt;" style="rounded=1;whiteSpace=wrap;html=1;strokeColor=#666666;fontFamily=Helvetica;fontSize=12;fontColor=#143642;fillColor=#FFFFFF;arcSize=0;fontStyle=0;shadow=0;labelBackgroundColor=none;container=0;strokeWidth=3;" vertex="1" parent="4REqOIB7tcGAyymllORO-195">
          <mxGeometry x="168.07000000000005" y="66" width="70" height="30" as="geometry" />
        </mxCell>
        <mxCell id="4REqOIB7tcGAyymllORO-118" value="" style="edgeStyle=orthogonalEdgeStyle;shape=connector;curved=0;rounded=1;orthogonalLoop=1;jettySize=auto;html=1;labelBackgroundColor=default;strokeColor=#666666;strokeWidth=3;align=center;verticalAlign=middle;fontFamily=Helvetica;fontSize=11;fontColor=default;startArrow=none;startFill=0;endArrow=openThin;endFill=0;" edge="1" parent="4REqOIB7tcGAyymllORO-195" source="4REqOIB7tcGAyymllORO-102" target="4REqOIB7tcGAyymllORO-106">
          <mxGeometry relative="1" as="geometry" />
        </mxCell>
        <mxCell id="4REqOIB7tcGAyymllORO-169" value="" style="group" vertex="1" connectable="0" parent="4REqOIB7tcGAyymllORO-195">
          <mxGeometry x="267.7600000000001" y="119" width="238.30999999999995" height="36" as="geometry" />
        </mxCell>
        <mxCell id="4REqOIB7tcGAyymllORO-163" style="edgeStyle=orthogonalEdgeStyle;shape=connector;curved=0;rounded=0;orthogonalLoop=1;jettySize=auto;html=1;labelBackgroundColor=default;strokeColor=#666666;strokeWidth=3;align=center;verticalAlign=middle;fontFamily=Helvetica;fontSize=11;fontColor=default;endArrow=none;endFill=0;startArrow=openThin;startFill=0;exitX=0;exitY=0.5;exitDx=0;exitDy=0;" edge="1" parent="4REqOIB7tcGAyymllORO-169" source="4REqOIB7tcGAyymllORO-165">
          <mxGeometry relative="1" as="geometry">
            <mxPoint x="-1.6900000000000546" y="21" as="targetPoint" />
            <mxPoint x="58.309999999999945" y="22" as="sourcePoint" />
            <Array as="points">
              <mxPoint x="0.30999999999994543" y="21" />
            </Array>
          </mxGeometry>
        </mxCell>
        <mxCell id="4REqOIB7tcGAyymllORO-164" value="&lt;font size=&quot;1&quot; color=&quot;#666666&quot;&gt;&lt;b style=&quot;font-size: 12px;&quot;&gt;Required&lt;br&gt;&lt;/b&gt;&lt;/font&gt;" style="text;html=1;strokeColor=none;fillColor=none;align=left;verticalAlign=middle;whiteSpace=wrap;rounded=0;fontSize=11;fontFamily=Helvetica;fontColor=#333333;container=0;" vertex="1" parent="4REqOIB7tcGAyymllORO-169">
          <mxGeometry width="60" height="20" as="geometry" />
        </mxCell>
        <mxCell id="4REqOIB7tcGAyymllORO-165" value="&lt;font color=&quot;#666666&quot;&gt;&lt;b&gt;required:&lt;/b&gt;&lt;/font&gt;" style="rounded=1;whiteSpace=wrap;html=1;strokeColor=#666666;fontFamily=Helvetica;fontSize=12;fontColor=#143642;fillColor=#ffffff;arcSize=50;fontStyle=0;shadow=0;labelBackgroundColor=none;align=center;verticalAlign=middle;strokeWidth=3;container=0;" vertex="1" parent="4REqOIB7tcGAyymllORO-169">
          <mxGeometry x="66.31999999999994" y="6" width="67.99" height="30" as="geometry" />
        </mxCell>
        <mxCell id="4REqOIB7tcGAyymllORO-168" style="edgeStyle=orthogonalEdgeStyle;shape=connector;curved=0;rounded=1;orthogonalLoop=1;jettySize=auto;html=1;exitX=1;exitY=0.5;exitDx=0;exitDy=0;labelBackgroundColor=default;strokeColor=#666666;strokeWidth=3;align=center;verticalAlign=middle;fontFamily=Helvetica;fontSize=11;fontColor=default;startArrow=none;startFill=0;endArrow=openThin;endFill=0;" edge="1" parent="4REqOIB7tcGAyymllORO-169" source="4REqOIB7tcGAyymllORO-166">
          <mxGeometry relative="1" as="geometry">
            <mxPoint x="244.30999999999995" y="21" as="targetPoint" />
          </mxGeometry>
        </mxCell>
        <mxCell id="4REqOIB7tcGAyymllORO-166" value="&lt;b style=&quot;border-color: var(--border-color); color: rgb(51, 51, 51);&quot;&gt;&lt;font style=&quot;border-color: var(--border-color);&quot; color=&quot;#666666&quot;&gt;Boolean&lt;/font&gt;&lt;/b&gt;" style="ellipse;whiteSpace=wrap;html=1;rounded=1;labelBackgroundColor=none;strokeColor=#666666;fontFamily=Helvetica;fontSize=12;fontColor=default;fillColor=default;container=0;strokeWidth=3;" vertex="1" parent="4REqOIB7tcGAyymllORO-169">
          <mxGeometry x="152.30999999999995" y="6" width="70" height="30" as="geometry" />
        </mxCell>
        <mxCell id="4REqOIB7tcGAyymllORO-167" value="" style="edgeStyle=orthogonalEdgeStyle;shape=connector;curved=0;rounded=1;orthogonalLoop=1;jettySize=auto;html=1;labelBackgroundColor=default;strokeColor=#666666;strokeWidth=3;align=center;verticalAlign=middle;fontFamily=Helvetica;fontSize=11;fontColor=default;startArrow=none;startFill=0;endArrow=openThin;endFill=0;" edge="1" parent="4REqOIB7tcGAyymllORO-169" source="4REqOIB7tcGAyymllORO-165" target="4REqOIB7tcGAyymllORO-166">
          <mxGeometry relative="1" as="geometry">
            <Array as="points">
              <mxPoint x="138.30999999999995" y="21" />
              <mxPoint x="138.30999999999995" y="21" />
            </Array>
          </mxGeometry>
        </mxCell>
        <mxCell id="4REqOIB7tcGAyymllORO-171" value="" style="group" vertex="1" connectable="0" parent="4REqOIB7tcGAyymllORO-195">
          <mxGeometry x="268.07000000000005" y="164" width="238.30999999999995" height="36" as="geometry" />
        </mxCell>
        <mxCell id="4REqOIB7tcGAyymllORO-172" style="edgeStyle=orthogonalEdgeStyle;shape=connector;curved=0;rounded=0;orthogonalLoop=1;jettySize=auto;html=1;labelBackgroundColor=default;strokeColor=#666666;strokeWidth=3;align=center;verticalAlign=middle;fontFamily=Helvetica;fontSize=11;fontColor=default;endArrow=none;endFill=0;startArrow=openThin;startFill=0;exitX=0;exitY=0.5;exitDx=0;exitDy=0;" edge="1" parent="4REqOIB7tcGAyymllORO-171" source="4REqOIB7tcGAyymllORO-174">
          <mxGeometry relative="1" as="geometry">
            <mxPoint x="-1.6900000000000546" y="21" as="targetPoint" />
            <mxPoint x="58.309999999999945" y="22" as="sourcePoint" />
            <Array as="points">
              <mxPoint x="0.30999999999994543" y="21" />
            </Array>
          </mxGeometry>
        </mxCell>
        <mxCell id="4REqOIB7tcGAyymllORO-173" value="&lt;font size=&quot;1&quot; color=&quot;#666666&quot;&gt;&lt;b style=&quot;font-size: 12px;&quot;&gt;Count&lt;br&gt;&lt;/b&gt;&lt;/font&gt;" style="text;html=1;strokeColor=none;fillColor=none;align=left;verticalAlign=middle;whiteSpace=wrap;rounded=0;fontSize=11;fontFamily=Helvetica;fontColor=#333333;container=0;" vertex="1" parent="4REqOIB7tcGAyymllORO-171">
          <mxGeometry width="60" height="20" as="geometry" />
        </mxCell>
        <mxCell id="4REqOIB7tcGAyymllORO-174" value="&lt;font color=&quot;#666666&quot;&gt;&lt;b&gt;count:&lt;/b&gt;&lt;/font&gt;" style="rounded=1;whiteSpace=wrap;html=1;strokeColor=#666666;fontFamily=Helvetica;fontSize=12;fontColor=#143642;fillColor=#ffffff;arcSize=50;fontStyle=0;shadow=0;labelBackgroundColor=none;align=center;verticalAlign=middle;strokeWidth=3;container=0;" vertex="1" parent="4REqOIB7tcGAyymllORO-171">
          <mxGeometry x="66.31999999999994" y="6" width="67.99" height="30" as="geometry" />
        </mxCell>
        <mxCell id="4REqOIB7tcGAyymllORO-175" style="edgeStyle=orthogonalEdgeStyle;shape=connector;curved=0;rounded=1;orthogonalLoop=1;jettySize=auto;html=1;exitX=1;exitY=0.5;exitDx=0;exitDy=0;labelBackgroundColor=default;strokeColor=#666666;strokeWidth=3;align=center;verticalAlign=middle;fontFamily=Helvetica;fontSize=11;fontColor=default;startArrow=none;startFill=0;endArrow=openThin;endFill=0;" edge="1" parent="4REqOIB7tcGAyymllORO-171" source="4REqOIB7tcGAyymllORO-176">
          <mxGeometry relative="1" as="geometry">
            <mxPoint x="244.30999999999995" y="21" as="targetPoint" />
          </mxGeometry>
        </mxCell>
        <mxCell id="4REqOIB7tcGAyymllORO-176" value="&lt;b style=&quot;border-color: var(--border-color); color: rgb(51, 51, 51);&quot;&gt;&lt;font style=&quot;border-color: var(--border-color);&quot; color=&quot;#666666&quot;&gt;Integer&lt;/font&gt;&lt;/b&gt;" style="ellipse;whiteSpace=wrap;html=1;rounded=1;labelBackgroundColor=none;strokeColor=#666666;fontFamily=Helvetica;fontSize=12;fontColor=default;fillColor=default;container=0;strokeWidth=3;" vertex="1" parent="4REqOIB7tcGAyymllORO-171">
          <mxGeometry x="152.30999999999995" y="6" width="70" height="30" as="geometry" />
        </mxCell>
        <mxCell id="4REqOIB7tcGAyymllORO-177" value="" style="edgeStyle=orthogonalEdgeStyle;shape=connector;curved=0;rounded=1;orthogonalLoop=1;jettySize=auto;html=1;labelBackgroundColor=default;strokeColor=#666666;strokeWidth=3;align=center;verticalAlign=middle;fontFamily=Helvetica;fontSize=11;fontColor=default;startArrow=none;startFill=0;endArrow=openThin;endFill=0;" edge="1" parent="4REqOIB7tcGAyymllORO-171" source="4REqOIB7tcGAyymllORO-174" target="4REqOIB7tcGAyymllORO-176">
          <mxGeometry relative="1" as="geometry">
            <Array as="points">
              <mxPoint x="138.30999999999995" y="21" />
              <mxPoint x="138.30999999999995" y="21" />
            </Array>
          </mxGeometry>
        </mxCell>
        <mxCell id="4REqOIB7tcGAyymllORO-185" value="" style="group" vertex="1" connectable="0" parent="4REqOIB7tcGAyymllORO-195">
          <mxGeometry x="268.07000000000005" y="208" width="238.30999999999995" height="36" as="geometry" />
        </mxCell>
        <mxCell id="4REqOIB7tcGAyymllORO-186" style="edgeStyle=orthogonalEdgeStyle;shape=connector;curved=0;rounded=0;orthogonalLoop=1;jettySize=auto;html=1;labelBackgroundColor=default;strokeColor=#666666;strokeWidth=3;align=center;verticalAlign=middle;fontFamily=Helvetica;fontSize=11;fontColor=default;endArrow=none;endFill=0;startArrow=openThin;startFill=0;exitX=0;exitY=0.5;exitDx=0;exitDy=0;" edge="1" parent="4REqOIB7tcGAyymllORO-185" source="4REqOIB7tcGAyymllORO-188">
          <mxGeometry relative="1" as="geometry">
            <mxPoint x="-1.6900000000000546" y="21" as="targetPoint" />
            <mxPoint x="58.309999999999945" y="22" as="sourcePoint" />
            <Array as="points">
              <mxPoint x="0.30999999999994543" y="21" />
            </Array>
          </mxGeometry>
        </mxCell>
        <mxCell id="4REqOIB7tcGAyymllORO-187" value="&lt;font size=&quot;1&quot; color=&quot;#666666&quot;&gt;&lt;b style=&quot;font-size: 12px;&quot;&gt;Timeout&lt;br&gt;&lt;/b&gt;&lt;/font&gt;" style="text;html=1;strokeColor=none;fillColor=none;align=left;verticalAlign=middle;whiteSpace=wrap;rounded=0;fontSize=11;fontFamily=Helvetica;fontColor=#333333;container=0;" vertex="1" parent="4REqOIB7tcGAyymllORO-185">
          <mxGeometry width="60" height="20" as="geometry" />
        </mxCell>
        <mxCell id="4REqOIB7tcGAyymllORO-188" value="&lt;font color=&quot;#666666&quot;&gt;&lt;b&gt;timeout:&lt;/b&gt;&lt;/font&gt;" style="rounded=1;whiteSpace=wrap;html=1;strokeColor=#666666;fontFamily=Helvetica;fontSize=12;fontColor=#143642;fillColor=#ffffff;arcSize=50;fontStyle=0;shadow=0;labelBackgroundColor=none;align=center;verticalAlign=middle;strokeWidth=3;container=0;" vertex="1" parent="4REqOIB7tcGAyymllORO-185">
          <mxGeometry x="66.31999999999994" y="6" width="67.99" height="30" as="geometry" />
        </mxCell>
        <mxCell id="4REqOIB7tcGAyymllORO-189" style="edgeStyle=orthogonalEdgeStyle;shape=connector;curved=0;rounded=1;orthogonalLoop=1;jettySize=auto;html=1;exitX=1;exitY=0.5;exitDx=0;exitDy=0;labelBackgroundColor=default;strokeColor=#666666;strokeWidth=3;align=center;verticalAlign=middle;fontFamily=Helvetica;fontSize=11;fontColor=default;startArrow=none;startFill=0;endArrow=openThin;endFill=0;" edge="1" parent="4REqOIB7tcGAyymllORO-185" source="4REqOIB7tcGAyymllORO-190">
          <mxGeometry relative="1" as="geometry">
            <mxPoint x="244.30999999999995" y="21" as="targetPoint" />
          </mxGeometry>
        </mxCell>
        <mxCell id="4REqOIB7tcGAyymllORO-190" value="&lt;b style=&quot;border-color: var(--border-color); color: rgb(51, 51, 51);&quot;&gt;&lt;font style=&quot;border-color: var(--border-color);&quot; color=&quot;#666666&quot;&gt;Integer&lt;/font&gt;&lt;/b&gt;" style="ellipse;whiteSpace=wrap;html=1;rounded=1;labelBackgroundColor=none;strokeColor=#666666;fontFamily=Helvetica;fontSize=12;fontColor=default;fillColor=default;container=0;strokeWidth=3;" vertex="1" parent="4REqOIB7tcGAyymllORO-185">
          <mxGeometry x="152.30999999999995" y="6" width="70" height="30" as="geometry" />
        </mxCell>
        <mxCell id="4REqOIB7tcGAyymllORO-191" value="" style="edgeStyle=orthogonalEdgeStyle;shape=connector;curved=0;rounded=1;orthogonalLoop=1;jettySize=auto;html=1;labelBackgroundColor=default;strokeColor=#666666;strokeWidth=3;align=center;verticalAlign=middle;fontFamily=Helvetica;fontSize=11;fontColor=default;startArrow=none;startFill=0;endArrow=openThin;endFill=0;" edge="1" parent="4REqOIB7tcGAyymllORO-185" source="4REqOIB7tcGAyymllORO-188" target="4REqOIB7tcGAyymllORO-190">
          <mxGeometry relative="1" as="geometry">
            <Array as="points">
              <mxPoint x="138.30999999999995" y="21" />
              <mxPoint x="138.30999999999995" y="21" />
            </Array>
          </mxGeometry>
        </mxCell>
        <mxCell id="4REqOIB7tcGAyymllORO-192" value="" style="group" vertex="1" connectable="0" parent="4REqOIB7tcGAyymllORO-195">
          <mxGeometry x="3.7600000000001046" y="127" width="258.30999999999995" height="110" as="geometry" />
        </mxCell>
        <mxCell id="4REqOIB7tcGAyymllORO-152" style="edgeStyle=orthogonalEdgeStyle;shape=connector;curved=0;rounded=1;orthogonalLoop=1;jettySize=auto;html=1;exitX=1;exitY=0.5;exitDx=0;exitDy=0;labelBackgroundColor=default;strokeColor=#666666;strokeWidth=3;align=center;verticalAlign=middle;fontFamily=Helvetica;fontSize=11;fontColor=default;startArrow=none;startFill=0;endArrow=openThin;endFill=0;" edge="1" parent="4REqOIB7tcGAyymllORO-192" source="4REqOIB7tcGAyymllORO-74">
          <mxGeometry relative="1" as="geometry">
            <mxPoint x="258.30999999999995" y="55" as="targetPoint" />
            <Array as="points">
              <mxPoint x="238.30999999999995" y="15" />
              <mxPoint x="238.30999999999995" y="55" />
            </Array>
          </mxGeometry>
        </mxCell>
        <mxCell id="4REqOIB7tcGAyymllORO-74" value="&lt;b style=&quot;border-color: var(--border-color); color: rgb(51, 51, 51);&quot;&gt;&lt;font style=&quot;border-color: var(--border-color);&quot; color=&quot;#666666&quot;&gt;&quot;number&quot;&lt;/font&gt;&lt;/b&gt;" style="ellipse;whiteSpace=wrap;html=1;rounded=1;labelBackgroundColor=none;strokeColor=#666666;fontFamily=Helvetica;fontSize=12;fontColor=default;fillColor=default;container=0;strokeWidth=3;" vertex="1" parent="4REqOIB7tcGAyymllORO-192">
          <mxGeometry x="150.30999999999995" width="70" height="30" as="geometry" />
        </mxCell>
        <mxCell id="4REqOIB7tcGAyymllORO-126" style="edgeStyle=orthogonalEdgeStyle;shape=connector;curved=0;rounded=0;orthogonalLoop=1;jettySize=auto;html=1;labelBackgroundColor=default;strokeColor=#666666;strokeWidth=3;align=center;verticalAlign=middle;fontFamily=Helvetica;fontSize=11;fontColor=default;endArrow=none;endFill=0;startArrow=openThin;startFill=0;" edge="1" parent="4REqOIB7tcGAyymllORO-192">
          <mxGeometry relative="1" as="geometry">
            <mxPoint y="56" as="targetPoint" />
            <mxPoint x="58.5" y="56" as="sourcePoint" />
          </mxGeometry>
        </mxCell>
        <mxCell id="4REqOIB7tcGAyymllORO-127" value="&lt;font size=&quot;1&quot; color=&quot;#666666&quot;&gt;&lt;b style=&quot;font-size: 12px;&quot;&gt;Output&lt;br&gt;&lt;/b&gt;&lt;/font&gt;" style="text;html=1;strokeColor=none;fillColor=none;align=left;verticalAlign=middle;whiteSpace=wrap;rounded=0;fontSize=11;fontFamily=Helvetica;fontColor=#333333;container=0;" vertex="1" parent="4REqOIB7tcGAyymllORO-192">
          <mxGeometry x="0.18999999999994088" y="34" width="60" height="20" as="geometry" />
        </mxCell>
        <mxCell id="4REqOIB7tcGAyymllORO-148" style="edgeStyle=orthogonalEdgeStyle;shape=connector;curved=0;rounded=1;orthogonalLoop=1;jettySize=auto;html=1;exitX=1;exitY=0.5;exitDx=0;exitDy=0;entryX=0;entryY=0.5;entryDx=0;entryDy=0;labelBackgroundColor=default;strokeColor=#666666;strokeWidth=3;align=center;verticalAlign=middle;fontFamily=Helvetica;fontSize=11;fontColor=default;startArrow=none;startFill=0;endArrow=openThin;endFill=0;" edge="1" parent="4REqOIB7tcGAyymllORO-192" source="4REqOIB7tcGAyymllORO-128" target="4REqOIB7tcGAyymllORO-74">
          <mxGeometry relative="1" as="geometry">
            <Array as="points">
              <mxPoint x="128.30999999999995" y="55" />
              <mxPoint x="128.30999999999995" y="15" />
            </Array>
          </mxGeometry>
        </mxCell>
        <mxCell id="4REqOIB7tcGAyymllORO-128" value="&lt;font color=&quot;#666666&quot;&gt;&lt;b&gt;output:&lt;/b&gt;&lt;/font&gt;" style="rounded=1;whiteSpace=wrap;html=1;strokeColor=#666666;fontFamily=Helvetica;fontSize=12;fontColor=#143642;fillColor=#ffffff;arcSize=50;fontStyle=0;shadow=0;labelBackgroundColor=none;align=center;verticalAlign=middle;strokeWidth=3;container=0;" vertex="1" parent="4REqOIB7tcGAyymllORO-192">
          <mxGeometry x="60.50999999999999" y="40" width="57.99" height="30" as="geometry" />
        </mxCell>
        <mxCell id="4REqOIB7tcGAyymllORO-151" style="edgeStyle=orthogonalEdgeStyle;shape=connector;curved=0;rounded=1;orthogonalLoop=1;jettySize=auto;html=1;exitX=1;exitY=0.5;exitDx=0;exitDy=0;labelBackgroundColor=default;strokeColor=#666666;strokeWidth=3;align=center;verticalAlign=middle;fontFamily=Helvetica;fontSize=11;fontColor=default;startArrow=none;startFill=0;endArrow=openThin;endFill=0;" edge="1" parent="4REqOIB7tcGAyymllORO-192" source="4REqOIB7tcGAyymllORO-146">
          <mxGeometry relative="1" as="geometry">
            <mxPoint x="258.30999999999995" y="55" as="targetPoint" />
          </mxGeometry>
        </mxCell>
        <mxCell id="4REqOIB7tcGAyymllORO-146" value="&lt;b style=&quot;border-color: var(--border-color); color: rgb(51, 51, 51);&quot;&gt;&lt;font style=&quot;border-color: var(--border-color);&quot; color=&quot;#666666&quot;&gt;&quot;text&quot;&lt;/font&gt;&lt;/b&gt;" style="ellipse;whiteSpace=wrap;html=1;rounded=1;labelBackgroundColor=none;strokeColor=#666666;fontFamily=Helvetica;fontSize=12;fontColor=default;fillColor=default;container=0;strokeWidth=3;" vertex="1" parent="4REqOIB7tcGAyymllORO-192">
          <mxGeometry x="150.30999999999995" y="40" width="70" height="30" as="geometry" />
        </mxCell>
        <mxCell id="4REqOIB7tcGAyymllORO-149" style="edgeStyle=orthogonalEdgeStyle;shape=connector;curved=0;rounded=1;orthogonalLoop=1;jettySize=auto;html=1;exitX=1;exitY=0.5;exitDx=0;exitDy=0;entryX=0;entryY=0.5;entryDx=0;entryDy=0;labelBackgroundColor=default;strokeColor=#666666;strokeWidth=3;align=center;verticalAlign=middle;fontFamily=Helvetica;fontSize=11;fontColor=default;startArrow=none;startFill=0;endArrow=openThin;endFill=0;" edge="1" parent="4REqOIB7tcGAyymllORO-192" source="4REqOIB7tcGAyymllORO-128" target="4REqOIB7tcGAyymllORO-146">
          <mxGeometry relative="1" as="geometry" />
        </mxCell>
        <mxCell id="4REqOIB7tcGAyymllORO-153" style="edgeStyle=orthogonalEdgeStyle;shape=connector;curved=0;rounded=1;orthogonalLoop=1;jettySize=auto;html=1;exitX=1;exitY=0.5;exitDx=0;exitDy=0;labelBackgroundColor=default;strokeColor=#666666;strokeWidth=3;align=center;verticalAlign=middle;fontFamily=Helvetica;fontSize=11;fontColor=default;startArrow=none;startFill=0;endArrow=openThin;endFill=0;" edge="1" parent="4REqOIB7tcGAyymllORO-192" source="4REqOIB7tcGAyymllORO-147">
          <mxGeometry relative="1" as="geometry">
            <mxPoint x="258.30999999999995" y="55" as="targetPoint" />
            <Array as="points">
              <mxPoint x="238.30999999999995" y="95" />
              <mxPoint x="238.30999999999995" y="55" />
            </Array>
          </mxGeometry>
        </mxCell>
        <mxCell id="4REqOIB7tcGAyymllORO-147" value="&lt;b style=&quot;border-color: var(--border-color); color: rgb(51, 51, 51);&quot;&gt;&lt;font style=&quot;border-color: var(--border-color);&quot; color=&quot;#666666&quot;&gt;&quot;bool&quot;&lt;/font&gt;&lt;/b&gt;" style="ellipse;whiteSpace=wrap;html=1;rounded=1;labelBackgroundColor=none;strokeColor=#666666;fontFamily=Helvetica;fontSize=12;fontColor=default;fillColor=default;container=0;strokeWidth=3;" vertex="1" parent="4REqOIB7tcGAyymllORO-192">
          <mxGeometry x="150.30999999999995" y="80" width="70" height="30" as="geometry" />
        </mxCell>
        <mxCell id="4REqOIB7tcGAyymllORO-150" style="edgeStyle=orthogonalEdgeStyle;shape=connector;curved=0;rounded=1;orthogonalLoop=1;jettySize=auto;html=1;exitX=1;exitY=0.5;exitDx=0;exitDy=0;entryX=0;entryY=0.5;entryDx=0;entryDy=0;labelBackgroundColor=default;strokeColor=#666666;strokeWidth=3;align=center;verticalAlign=middle;fontFamily=Helvetica;fontSize=11;fontColor=default;startArrow=none;startFill=0;endArrow=openThin;endFill=0;" edge="1" parent="4REqOIB7tcGAyymllORO-192" source="4REqOIB7tcGAyymllORO-128" target="4REqOIB7tcGAyymllORO-147">
          <mxGeometry relative="1" as="geometry">
            <Array as="points">
              <mxPoint x="128.30999999999995" y="55" />
              <mxPoint x="128.30999999999995" y="95" />
            </Array>
          </mxGeometry>
        </mxCell>
      </root>
    </mxGraphModel>
  </diagram>
</mxfile>
